<mxfile host="app.diagrams.net" modified="2024-04-15T06:14:31.753Z" agent="Mozilla/5.0 (Windows NT 10.0; Win64; x64) AppleWebKit/537.36 (KHTML, like Gecko) Chrome/123.0.0.0 Safari/537.36" etag="lsRXu4T343ps8pVT51xg" version="24.2.3" type="device">
  <diagram id="hbGzc5GR2uwquiHRmKMx" name="Page-1">
    <mxGraphModel dx="842" dy="440" grid="0" gridSize="10" guides="1" tooltips="1" connect="1" arrows="1" fold="1" page="1" pageScale="1" pageWidth="850" pageHeight="1100" math="0" shadow="0">
      <root>
        <mxCell id="0" />
        <mxCell id="1" parent="0" />
        <mxCell id="MRz2FaDNDLfrNsE2w1Sy-17" value="&lt;b data-sider-select-id=&quot;bb3aa4f4-1d71-40e0-8756-f92f04efd2ac&quot;&gt;state machine &lt;/b&gt;Event Ticketing&amp;nbsp;" style="shape=umlFrame;whiteSpace=wrap;html=1;fontSize=8;width=126;height=20;" parent="1" vertex="1">
          <mxGeometry x="40" y="80" width="560" height="440" as="geometry" />
        </mxCell>
        <mxCell id="MRz2FaDNDLfrNsE2w1Sy-18" value="" style="ellipse;html=1;shape=startState;fillColor=#000000;strokeColor=#000000;fontSize=8;" parent="1" vertex="1">
          <mxGeometry x="285" y="120" width="30" height="30" as="geometry" />
        </mxCell>
        <mxCell id="MRz2FaDNDLfrNsE2w1Sy-19" value="" style="edgeStyle=orthogonalEdgeStyle;html=1;verticalAlign=bottom;endArrow=open;endSize=8;strokeColor=#000000;rounded=0;fontSize=8;" parent="1" source="MRz2FaDNDLfrNsE2w1Sy-18" edge="1">
          <mxGeometry relative="1" as="geometry">
            <mxPoint x="300" y="200" as="targetPoint" />
          </mxGeometry>
        </mxCell>
        <mxCell id="MRz2FaDNDLfrNsE2w1Sy-20" value="Available" style="rounded=1;whiteSpace=wrap;html=1;strokeColor=#000000;fontSize=8;" parent="1" vertex="1">
          <mxGeometry x="257.5" y="200" width="85" height="40" as="geometry" />
        </mxCell>
        <mxCell id="MRz2FaDNDLfrNsE2w1Sy-23" value="Booked" style="rounded=1;whiteSpace=wrap;html=1;strokeColor=#000000;fontSize=8;" parent="1" vertex="1">
          <mxGeometry x="257.5" y="440" width="85" height="40" as="geometry" />
        </mxCell>
        <mxCell id="MRz2FaDNDLfrNsE2w1Sy-24" value="Sold" style="rounded=1;whiteSpace=wrap;html=1;strokeColor=#000000;fontSize=8;" parent="1" vertex="1">
          <mxGeometry x="400" y="440" width="85" height="40" as="geometry" />
        </mxCell>
        <mxCell id="MRz2FaDNDLfrNsE2w1Sy-25" value="Unavailable" style="rounded=1;whiteSpace=wrap;html=1;strokeColor=#000000;fontSize=8;dashed=1;" parent="1" vertex="1">
          <mxGeometry x="80" y="440" width="85" height="40" as="geometry" />
        </mxCell>
        <mxCell id="MRz2FaDNDLfrNsE2w1Sy-31" value="" style="endArrow=classic;html=1;rounded=0;strokeColor=#000000;fontSize=8;exitX=0.5;exitY=1;exitDx=0;exitDy=0;entryX=0.5;entryY=0;entryDx=0;entryDy=0;" parent="1" edge="1" target="MRz2FaDNDLfrNsE2w1Sy-23">
          <mxGeometry width="50" height="50" relative="1" as="geometry">
            <mxPoint x="300.07" y="240" as="sourcePoint" />
            <mxPoint x="299.83" y="360" as="targetPoint" />
          </mxGeometry>
        </mxCell>
        <mxCell id="MRz2FaDNDLfrNsE2w1Sy-34" value="" style="endArrow=classic;html=1;rounded=0;strokeColor=#000000;fontSize=8;exitX=1;exitY=0.5;exitDx=0;exitDy=0;entryX=0;entryY=0.5;entryDx=0;entryDy=0;" parent="1" source="MRz2FaDNDLfrNsE2w1Sy-23" target="MRz2FaDNDLfrNsE2w1Sy-24" edge="1">
          <mxGeometry width="50" height="50" relative="1" as="geometry">
            <mxPoint x="330" y="490" as="sourcePoint" />
            <mxPoint x="380" y="440" as="targetPoint" />
          </mxGeometry>
        </mxCell>
        <mxCell id="MRz2FaDNDLfrNsE2w1Sy-36" value="" style="endArrow=classic;html=1;rounded=1;strokeColor=#000000;fontSize=8;exitX=0;exitY=0.5;exitDx=0;exitDy=0;dashed=1;" parent="1" source="MRz2FaDNDLfrNsE2w1Sy-20" edge="1">
          <mxGeometry width="50" height="50" relative="1" as="geometry">
            <mxPoint x="200" y="250" as="sourcePoint" />
            <mxPoint x="120" y="440" as="targetPoint" />
            <Array as="points">
              <mxPoint x="163" y="220" />
              <mxPoint x="120" y="220" />
            </Array>
          </mxGeometry>
        </mxCell>
        <mxCell id="MRz2FaDNDLfrNsE2w1Sy-38" value="" style="endArrow=classic;html=1;strokeColor=#000000;fontSize=8;entryX=1;entryY=0.5;entryDx=0;entryDy=0;rounded=1;dashed=1;" parent="1" target="MRz2FaDNDLfrNsE2w1Sy-20" edge="1">
          <mxGeometry width="50" height="50" relative="1" as="geometry">
            <mxPoint x="440" y="440" as="sourcePoint" />
            <mxPoint x="490" y="390" as="targetPoint" />
            <Array as="points">
              <mxPoint x="440" y="220" />
            </Array>
          </mxGeometry>
        </mxCell>
        <mxCell id="MRz2FaDNDLfrNsE2w1Sy-39" value="" style="ellipse;html=1;shape=endState;fillColor=#000000;strokeColor=#000000;fontSize=8;" parent="1" vertex="1">
          <mxGeometry x="550" y="445" width="30" height="30" as="geometry" />
        </mxCell>
        <mxCell id="MRz2FaDNDLfrNsE2w1Sy-40" value="" style="endArrow=classic;html=1;rounded=0;strokeColor=#000000;fontSize=8;exitX=1;exitY=0.5;exitDx=0;exitDy=0;entryX=0;entryY=0.5;entryDx=0;entryDy=0;" parent="1" edge="1">
          <mxGeometry width="50" height="50" relative="1" as="geometry">
            <mxPoint x="485" y="459.71" as="sourcePoint" />
            <mxPoint x="542.5" y="459.71" as="targetPoint" />
          </mxGeometry>
        </mxCell>
        <mxCell id="MRz2FaDNDLfrNsE2w1Sy-41" value="&lt;span style=&quot;color: rgb(31, 31, 31); font-family: &amp;quot;Google Sans&amp;quot;, &amp;quot;Helvetica Neue&amp;quot;, sans-serif; font-size: 7px; background-color: rgb(255, 255, 255);&quot; data-sider-select-id=&quot;3b222f72-f204-475c-bc67-9854aa5c0f50&quot;&gt;Customer &lt;/span&gt;&lt;span data-sider-select-id=&quot;04d20f06-ec7a-4794-b5bb-1bf82e6f9cb1&quot; style=&quot;color: rgb(31, 31, 31); font-family: &amp;quot;Google Sans&amp;quot;, &amp;quot;Helvetica Neue&amp;quot;, sans-serif; background-color: rgb(255, 255, 255);&quot;&gt;proceeds with selected seats for ordering&amp;nbsp;&lt;/span&gt;" style="text;html=1;strokeColor=none;fillColor=none;align=left;verticalAlign=middle;whiteSpace=wrap;rounded=0;fontSize=7;" parent="1" vertex="1">
          <mxGeometry x="210" y="290" width="89" height="30" as="geometry" />
        </mxCell>
        <mxCell id="MRz2FaDNDLfrNsE2w1Sy-43" value="&lt;span style=&quot;color: rgb(31, 31, 31); font-family: &amp;quot;Google Sans&amp;quot;, &amp;quot;Helvetica Neue&amp;quot;, sans-serif; font-size: 7px; background-color: rgb(255, 255, 255);&quot; data-sider-select-id=&quot;dc7f8193-39aa-4ed7-a72f-7df5dc65f4e6&quot;&gt;Successful payment processing&lt;/span&gt;" style="text;html=1;strokeColor=none;fillColor=none;align=left;verticalAlign=middle;whiteSpace=wrap;rounded=0;fontSize=7;" parent="1" vertex="1">
          <mxGeometry x="350" y="421" width="60" height="30" as="geometry" />
        </mxCell>
        <mxCell id="MRz2FaDNDLfrNsE2w1Sy-45" value="&lt;span style=&quot;color: rgb(31, 31, 31); font-family: &amp;quot;Google Sans&amp;quot;, &amp;quot;Helvetica Neue&amp;quot;, sans-serif; font-size: 7px; background-color: rgb(255, 255, 255);&quot; data-sider-select-id=&quot;7356a46b-e68c-42a8-a023-e0b2eb7fb5b3&quot;&gt;Cancellations or refunds&lt;/span&gt;" style="text;html=1;strokeColor=none;fillColor=none;align=left;verticalAlign=middle;whiteSpace=wrap;rounded=0;fontSize=7;" parent="1" vertex="1">
          <mxGeometry x="445" y="365" width="75" height="30" as="geometry" />
        </mxCell>
        <mxCell id="MRz2FaDNDLfrNsE2w1Sy-46" value="&lt;span style=&quot;color: rgb(31, 31, 31); font-family: &amp;quot;Google Sans&amp;quot;, &amp;quot;Helvetica Neue&amp;quot;, sans-serif; background-color: rgb(255, 255, 255);&quot; data-sider-select-id=&quot;218b875b-02a1-4d87-8d80-e8fbd3636ebe&quot;&gt;&lt;font style=&quot;font-size: 8px;&quot; data-sider-select-id=&quot;67a11f57-f3c3-45d6-ae2a-2247ecbcfeaa&quot;&gt;Unforeseen circumstances (event canceled, etc)&lt;/font&gt;&lt;/span&gt;" style="text;html=1;strokeColor=none;fillColor=none;align=left;verticalAlign=middle;whiteSpace=wrap;rounded=0;fontSize=7;" parent="1" vertex="1">
          <mxGeometry x="60" y="360" width="60" height="40" as="geometry" />
        </mxCell>
        <mxCell id="MRz2FaDNDLfrNsE2w1Sy-47" value="" style="endArrow=classic;html=1;rounded=1;strokeColor=#000000;fontSize=6;exitX=0.738;exitY=-0.061;exitDx=0;exitDy=0;entryX=1;entryY=1;entryDx=0;entryDy=0;dashed=1;exitPerimeter=0;" parent="1" source="MRz2FaDNDLfrNsE2w1Sy-23" target="MRz2FaDNDLfrNsE2w1Sy-20" edge="1">
          <mxGeometry width="50" height="50" relative="1" as="geometry">
            <mxPoint x="342.5" y="370" as="sourcePoint" />
            <mxPoint x="280" y="240" as="targetPoint" />
            <Array as="points">
              <mxPoint x="320" y="400" />
              <mxPoint x="400" y="400" />
              <mxPoint x="400" y="240" />
            </Array>
          </mxGeometry>
        </mxCell>
        <mxCell id="MRz2FaDNDLfrNsE2w1Sy-48" value="&lt;span style=&quot;color: rgb(31, 31, 31); font-family: &amp;quot;Google Sans&amp;quot;, &amp;quot;Helvetica Neue&amp;quot;, sans-serif; font-size: 7px; background-color: rgb(255, 255, 255);&quot; data-sider-select-id=&quot;a489a6a7-27c1-4b66-a8dc-2553105ec07c&quot;&gt;The seat selection times out (15 min), or the customer cancel reservation of the seats or payment failed&lt;/span&gt;" style="text;html=1;strokeColor=none;fillColor=none;align=left;verticalAlign=middle;whiteSpace=wrap;rounded=0;fontSize=7;" parent="1" vertex="1">
          <mxGeometry x="330" y="350" width="70" height="30" as="geometry" />
        </mxCell>
        <mxCell id="MRz2FaDNDLfrNsE2w1Sy-49" value="" style="endArrow=classic;html=1;rounded=1;dashed=1;strokeColor=#000000;fontSize=7;exitX=0;exitY=0.75;exitDx=0;exitDy=0;entryX=0;entryY=0.5;entryDx=0;entryDy=0;" parent="1" source="MRz2FaDNDLfrNsE2w1Sy-20" target="MRz2FaDNDLfrNsE2w1Sy-23" edge="1">
          <mxGeometry width="50" height="50" relative="1" as="geometry">
            <mxPoint x="230" y="340" as="sourcePoint" />
            <mxPoint x="280" y="290" as="targetPoint" />
            <Array as="points">
              <mxPoint x="190" y="230" />
              <mxPoint x="190" y="460" />
            </Array>
          </mxGeometry>
        </mxCell>
        <mxCell id="MRz2FaDNDLfrNsE2w1Sy-50" value="&lt;span style=&quot;color: rgb(31, 31, 31); font-family: &amp;quot;Google Sans&amp;quot;, &amp;quot;Helvetica Neue&amp;quot;, sans-serif; font-size: 7px; background-color: rgb(255, 255, 255);&quot; data-sider-select-id=&quot;58b6bc27-aaea-40cb-b006-51da14636286&quot;&gt;For complimentary allocations (event&#39;s organizaters, etc)&amp;nbsp;&lt;/span&gt;" style="text;html=1;strokeColor=none;fillColor=none;align=left;verticalAlign=middle;whiteSpace=wrap;rounded=0;fontSize=7;" parent="1" vertex="1">
          <mxGeometry x="126" y="320" width="60" height="30" as="geometry" />
        </mxCell>
        <mxCell id="MRz2FaDNDLfrNsE2w1Sy-53" value="" style="endArrow=none;dashed=1;html=1;rounded=1;strokeColor=#000000;fontSize=7;" parent="1" edge="1">
          <mxGeometry width="50" height="50" relative="1" as="geometry">
            <mxPoint x="40" y="540" as="sourcePoint" />
            <mxPoint x="80" y="540" as="targetPoint" />
          </mxGeometry>
        </mxCell>
        <mxCell id="MRz2FaDNDLfrNsE2w1Sy-54" value="optional transition, state" style="text;html=1;strokeColor=none;fillColor=none;align=center;verticalAlign=middle;whiteSpace=wrap;rounded=0;strokeWidth=0;fontSize=7;" parent="1" vertex="1">
          <mxGeometry x="80" y="525" width="80" height="30" as="geometry" />
        </mxCell>
        <mxCell id="MRz2FaDNDLfrNsE2w1Sy-58" value="" style="endArrow=none;html=1;rounded=1;strokeColor=#000000;fontSize=7;" parent="1" edge="1">
          <mxGeometry width="50" height="50" relative="1" as="geometry">
            <mxPoint x="40" y="560" as="sourcePoint" />
            <mxPoint x="80" y="560" as="targetPoint" />
          </mxGeometry>
        </mxCell>
        <mxCell id="MRz2FaDNDLfrNsE2w1Sy-59" value="mandatory transition, state" style="text;html=1;strokeColor=none;fillColor=none;align=center;verticalAlign=middle;whiteSpace=wrap;rounded=0;strokeWidth=0;fontSize=7;" parent="1" vertex="1">
          <mxGeometry x="80" y="544" width="90" height="30" as="geometry" />
        </mxCell>
      </root>
    </mxGraphModel>
  </diagram>
</mxfile>
